# xmcd
#
# Track frame offsets:
#	150
#	10485
#	21337
#	33990
#	43017
#	52070
#	66195
#	74520
#	84155
#	95745
#	106100
#	114392
#	124767
#	132400
#	139990
#	147647
#	156537
#	173195
#	181465
#	197155
#	209922
#	218855
#	225670
#	231990
#	239875
#	247955
#	255480
#	265650
#
# Disc length: 3668 seconds
#
# Revision: 0
# Processed by: cddbd v1.4PL0 Copyright (c) Steve Scherf et al.
# Submitted via: EasyCDDAExtractor 4.6.9.1
#
DISCID=b50e521c
DTITLE=Frank Sinatra - The Very Best Of The Radio Years
DYEAR=2001
DGENRE=Oldies
TTITLE0=Love Me or Leave Me
TTITLE1=Out of Nowhere
TTITLE2=Nevertheless (I'm In Love With You)
TTITLE3=I've Got My Love To Keep Me Warm
TTITLE4=This Is Always
TTITLE5=Begin The Beguine
TTITLE6=My Hapiness
TTITLE7=Between The Devil and The Deep Blue Sea
TTITLE8=I'm In The Mood For Love
TTITLE9=A Hundred Years From Today
TTITLE10=Little White Lies
TTITLE11=I Don't Know Why
TTITLE12=What Can I Say After I Say I'm Sorry
TTITLE13='S Wonderful
TTITLE14=Lady From 29 Palms
TTITLE15=Tenderly
TTITLE16=Guess I'll Hang My Tears Out To Dry
TTITLE17=Some Other Time
TTITLE18=Just As Though You Were Here
TTITLE19=I Couldn't Sleep A Wink last Night
TTITLE20=Don't Blame Me
TTITLE21=Somebody Loves Me
TTITLE22=Hair Of Gold, Eyes Of Blue
TTITLE23=I'll String Along With You
TTITLE24=Thou Swell
TTITLE25=Saturday Nigth Is The Loneliest Night Of The Week
TTITLE26=I Wonder Whos's Kissing Her Now
TTITLE27=On The Sunny Side Of The Street
EXTD=
EXTT0=
EXTT1=
EXTT2=
EXTT3=
EXTT4=
EXTT5=
EXTT6=
EXTT7=
EXTT8=
EXTT9=
EXTT10=
EXTT11=
EXTT12=
EXTT13=
EXTT14=
EXTT15=
EXTT16=
EXTT17=
EXTT18=
EXTT19=
EXTT20=
EXTT21=
EXTT22=
EXTT23=
EXTT24=
EXTT25=
EXTT26=
EXTT27=
PLAYORDER=
